HIERARCHY
ROOT Hips
{
	OFFSET 0.00000 0.00000 0.00000
	CHANNELS 6 Xposition Yposition Zposition Zrotation Yrotation Xrotation 
	JOINT LHipJoint
	{
		OFFSET 0 0 0
		CHANNELS 3 Zrotation Yrotation Xrotation
		JOINT LeftUpLeg
		{
			OFFSET 1.78158 -1.79992 1.25746
			CHANNELS 3 Zrotation Yrotation Xrotation
			JOINT LeftLeg
			{
				OFFSET 2.48433 -6.82566 0.00000
				CHANNELS 3 Zrotation Yrotation Xrotation
				JOINT LeftFoot
				{
					OFFSET 2.69722 -7.41057 0.00000
					CHANNELS 3 Zrotation Yrotation Xrotation
					JOINT LeftToeBase
					{
						OFFSET 0.10733 -0.29489 1.75071
						CHANNELS 3 Zrotation Yrotation Xrotation
						End Site
						{
							OFFSET 0.00000 -0.00000 0.90224
						}
					}
				}
			}
		}
	}
	JOINT RHipJoint
	{
		OFFSET 0 0 0
		CHANNELS 3 Zrotation Yrotation Xrotation
		JOINT RightUpLeg
		{
			OFFSET -1.91234 -1.79993 1.25746
			CHANNELS 3 Zrotation Yrotation Xrotation
			JOINT RightLeg
			{
				OFFSET -2.33122 -6.40498 0.00000
				CHANNELS 3 Zrotation Yrotation Xrotation
				JOINT RightFoot
				{
					OFFSET -2.75667 -7.57390 0.00000
					CHANNELS 3 Zrotation Yrotation Xrotation
					JOINT RightToeBase
					{
						OFFSET -0.15946 -0.43811 1.78925
						CHANNELS 3 Zrotation Yrotation Xrotation
						End Site
						{
							OFFSET -0.00000 -0.00000 0.93158
						}
					}
				}
			}
		}
	}
	JOINT LowerBack
	{
		OFFSET 0 0 0
		CHANNELS 3 Zrotation Yrotation Xrotation
		JOINT Spine
		{
			OFFSET -0.02267 2.03993 -0.26238
			CHANNELS 3 Zrotation Yrotation Xrotation
			JOINT Spine1
			{
				OFFSET 0.02263 2.06220 -0.00892
				CHANNELS 3 Zrotation Yrotation Xrotation
				JOINT Neck
				{
					OFFSET 0 0 0
					CHANNELS 3 Zrotation Yrotation Xrotation
					JOINT Neck1
					{
						OFFSET -0.06177 1.95978 0.28606
						CHANNELS 3 Zrotation Yrotation Xrotation
						JOINT Head
						{
							OFFSET 0.08482 1.96576 -0.43252
							CHANNELS 3 Zrotation Yrotation Xrotation
							End Site
							{
								OFFSET 0.02787 2.02739 -0.18071
							}
						}
					}
				}
				JOINT LeftShoulder
				{
					OFFSET 0 0 0
					CHANNELS 3 Zrotation Yrotation Xrotation
					JOINT LeftArm
					{
						OFFSET 3.80978 1.64906 0.29973
						CHANNELS 3 Zrotation Yrotation Xrotation
						JOINT LeftForeArm
						{
							OFFSET 4.93042 -0.00000 0.00000
							CHANNELS 3 Zrotation Yrotation Xrotation
							JOINT LeftHand
							{
								OFFSET 3.68177 -0.00000 0.00000
								CHANNELS 3 Zrotation Yrotation Xrotation
								JOINT LeftFingerBase
								{
									OFFSET 0 0 0
									CHANNELS 3 Zrotation Yrotation Xrotation
									JOINT LeftHandIndex1
									{
										OFFSET 0.72148 -0.00000 0.00000
										CHANNELS 3 Zrotation Yrotation Xrotation
										End Site
										{
											OFFSET 0.58168 -0.00000 0.00000
										}
									}
								}
								JOINT LThumb
								{
									OFFSET 0 0 0
									CHANNELS 3 Zrotation Yrotation Xrotation
									End Site
									{
										OFFSET 0.59056 -0.00000 0.59056
									}
								}
							}
						}
					}
				}
				JOINT RightShoulder
				{
					OFFSET 0 0 0
					CHANNELS 3 Zrotation Yrotation Xrotation
					JOINT RightArm
					{
						OFFSET -3.49270 1.85636 0.09297
						CHANNELS 3 Zrotation Yrotation Xrotation
						JOINT RightForeArm
						{
							OFFSET -5.07905 -0.00000 -0.00000
							CHANNELS 3 Zrotation Yrotation Xrotation
							JOINT RightHand
							{
								OFFSET -3.54394 -0.00000 0.00000
								CHANNELS 3 Zrotation Yrotation Xrotation
								JOINT RightFingerBase
								{
									OFFSET 0 0 0
									CHANNELS 3 Zrotation Yrotation Xrotation
									JOINT RightHandIndex1
									{
										OFFSET -0.68116 -0.00000 0.00000
										CHANNELS 3 Zrotation Yrotation Xrotation
										End Site
										{
											OFFSET -0.54917 -0.00000 0.00000
										}
									}
								}
								JOINT RThumb
								{
									OFFSET 0 0 0
									CHANNELS 3 Zrotation Yrotation Xrotation
									End Site
									{
										OFFSET -0.55755 -0.00000 0.55755
									}
								}
							}
						}
					}
				}
			}
		}
	}
}
MOTION
Frames: 5
Frame Time: .0083333
-9.6167 17.9400 -16.3731 -162.8180 86.1645 -160.4030 0.0000 0.0000 0.0000 -12.9600 -11.7684 -1.1823 1.3854 7.4475 21.0481 1.5194 -0.5964 -23.1360 0.0117 -0.6992 -1.9216 0.0000 0.0000 0.0000 15.6340 -7.3069 5.5140 0.0000 -0.0000 0.0000 0.2016 -11.7347 -13.5027 -0.0142 -0.7697 2.1154 0.0043 -0.6137 6.1975 2.3156 -0.6444 -3.1047 2.4965 -0.2470 -6.6990 -7.6619 -4.9488 -24.0489 3.8369 -4.9807 32.9626 2.0019 -2.2775 16.1276 -0.0000 0.0000 0.0000 -77.1875 11.1896 71.1627 95.8142 -59.8719 -65.0331 -0.0000 0.0000 -31.1167 51.7394 15.7631 19.0073 -7.1250 0.0000 -0.0000 25.5203 52.6188 5.0509 -0.0000 0.0000 0.0000 77.3180 -15.7458 57.9076 -92.4569 59.9772 -62.1275 0.0000 -0.0000 -1.8115 -41.4694 -32.0138 25.1035 7.1250 -0.0000 -0.0000 -14.7945 -69.2982 8.6771
-9.6327 17.9445 -16.3727 -162.3850 86.0922 -159.8430 0.0000 0.0000 0.0000 -12.8625 -11.8545 -1.4140 1.3916 7.4634 21.0956 1.5080 -0.5433 -23.0639 0.0159 -0.8150 -2.2400 0.0000 0.0000 0.0000 15.7048 -7.3032 5.3037 0.0000 0.0000 -0.0000 0.2018 -11.7182 -13.4690 -0.0195 -0.9020 2.4792 0.0425 -0.6580 6.2171 2.3561 -0.6963 -3.1177 2.5243 -0.2726 -6.7220 -7.5921 -4.9609 -24.1207 3.8442 -5.0270 33.0271 1.9839 -2.2854 16.1769 -0.0000 0.0000 0.0000 -77.1802 10.9324 70.9509 96.0402 -59.8617 -65.2285 -0.0000 0.0000 -30.9309 51.7108 15.7734 19.0004 -7.1250 0.0000 -0.0000 25.4901 52.6246 5.0480 -0.0000 0.0000 0.0000 77.5126 -15.5799 57.6504 -92.6420 59.9736 -62.2878 0.0000 -0.0000 -1.4883 -40.8158 -31.7210 24.4227 7.1250 -0.0000 -0.0000 -13.6967 -68.7654 7.8605
-9.6483 17.9499 -16.3717 -162.2420 86.0577 -159.5530 0.0000 0.0000 0.0000 -12.7962 -11.9398 -1.6466 1.3945 7.4708 21.1179 1.4984 -0.4826 -23.0088 0.0167 -0.8333 -2.2904 0.0000 0.0000 0.0000 15.7484 -7.2632 5.0742 0.0000 0.0000 -0.0000 0.2046 -11.7194 -13.4188 -0.0248 -1.0170 2.7957 0.0355 -0.6798 6.2189 2.3906 -0.7229 -3.1310 2.5679 -0.2840 -6.7357 -7.5604 -4.9833 -24.2127 3.8836 -5.0830 33.1002 1.9843 -2.2971 16.2388 -0.0000 0.0000 0.0000 -77.2062 10.7170 70.7424 96.4117 -59.8441 -65.5498 -0.0000 0.0000 -30.7207 51.6330 15.7669 18.9441 -7.1250 0.0000 -0.0000 25.3918 52.5935 5.0063 -0.0000 0.0000 0.0000 77.6388 -15.4433 57.4336 -92.8600 59.9691 -62.4766 0.0000 -0.0000 -1.2554 -40.3154 -31.4984 23.9092 7.1250 -0.0000 -0.0000 -12.8854 -68.3598 7.2712
-9.6635 17.9557 -16.3703 -162.5420 86.0557 -159.7030 0.0000 0.0000 0.0000 -12.7774 -12.0314 -1.8478 1.3930 7.4670 21.1064 1.4915 -0.4152 -22.9759 0.0134 -0.7487 -2.0575 0.0000 0.0000 0.0000 15.7498 -7.2049 4.8528 0.0000 -0.0000 0.0000 0.2076 -11.7245 -13.3708 -0.0307 -1.1309 3.1090 -0.0040 -0.6754 6.2226 2.4121 -0.7187 -3.1403 2.6125 -0.2794 -6.7472 -7.6036 -5.0295 -24.3037 3.9777 -5.1636 33.1550 2.0158 -2.3206 16.2988 0.0000 -0.0000 0.0000 -77.2452 10.5166 70.5839 96.9082 -59.8189 -65.9790 -0.0000 0.0000 -30.5265 51.5881 15.7391 18.8856 -7.1250 0.0000 -0.0000 25.3239 52.5431 4.9591 0.0000 -0.0000 0.0000 77.7096 -15.3387 57.2338 -93.1151 59.9633 -62.6974 0.0000 -0.0000 -1.0968 -40.0006 -31.3806 23.6027 7.1250 -0.0000 -0.0000 -12.3843 -68.1300 6.9207
-9.6784 17.9614 -16.3690 -163.2500 86.0763 -160.2820 0.0000 0.0000 0.0000 -12.8042 -12.1219 -2.0011 1.3871 7.4517 21.0606 1.4862 -0.3424 -22.9579 0.0088 -0.6067 -1.6672 0.0000 0.0000 0.0000 15.7105 -7.1432 4.6613 0.0000 -0.0000 0.0000 0.2084 -11.7173 -13.3435 -0.0384 -1.2653 3.4790 -0.0519 -0.6458 6.2467 2.4185 -0.6826 -3.1439 2.6425 -0.2591 -6.7659 -7.7371 -5.1064 -24.3651 4.1338 -5.2772 33.1630 2.0823 -2.3608 16.3381 -0.0000 0.0000 0.0000 -77.2836 10.3104 70.4984 97.4753 -59.7878 -66.4691 -0.0000 0.0000 -30.3532 51.6391 15.6862 18.8601 -7.1250 0.0000 -0.0000 25.3616 52.4859 4.9303 -0.0000 0.0000 0.0000 77.7503 -15.2626 57.0251 -93.4100 59.9560 -62.9527 0.0000 -0.0000 -0.9846 -39.8869 -31.3798 23.5176 7.1250 -0.0000 -0.0000 -12.1996 -68.0936 6.8063
